<?xml version="1.0" encoding="UTF-8" standalone="no"?>
    <svg
    xmlns:svg="http://www.w3.org/2000/svg"
    xmlns="http://www.w3.org/2000/svg"
    width="240.0"
    height="240.0"
    >
        <g transform="scale(0.2349869451697128, -0.2349869451697128)   translate(468.1111111111111,-135.1111076328865)" stroke-width="4.2555555555555555"  fill="none">
        <!-- hidden lines -->
        <g  stroke="rgb(160,160,160)" fill="none" stroke-dasharray="4.2555555555555555,4.2555555555555555" >
    
        </g>

        <!-- solid lines -->
        <g  stroke="rgb(0,0,0)" fill="none">
    			<path d="M-383.0,49.99999652177536 L-383.0,-49.99999652177537 " />
			<path d="M383.0,49.99999652177537 L-383.0,49.999996521775365 " />
			<path d="M383.0,-49.99999652177536 L383.0,49.99999652177537 " />
			<path d="M-383.0,-49.99999652177537 L383.0,-49.999996521775365 " />
			<path d="M-373.0,39.99999721742029 L-373.0,-39.9999972174203 " />
			<path d="M-357.0,39.999997217420294 L-373.0,39.999997217420294 " />
			<path d="M-330.0,39.999997217420294 L-357.0,39.999997217420294 " />
			<path d="M330.0,39.9999972174203 L-330.0,39.999997217420294 " />
			<path d="M357.0,39.9999972174203 L330.0,39.9999972174203 " />
			<path d="M373.0,39.9999972174203 L357.0,39.9999972174203 " />
			<path d="M373.0,-39.99999721742029 L373.0,39.9999972174203 " />
			<path d="M357.0,-39.999997217420294 L373.0,-39.999997217420294 " />
			<path d="M330.0,-39.999997217420294 L357.0,-39.999997217420294 " />
			<path d="M-330.0,-39.9999972174203 L330.0,-39.999997217420294 " />
			<path d="M-357.0,-39.9999972174203 L-330.0,-39.9999972174203 " />
			<path d="M-373.0,-39.9999972174203 L-357.0,-39.9999972174203 " />
			<path d="M357.0,44.99999686959784 L357.0,39.9999972174203 " />
			<path d="M330.0,44.99999686959783 L357.0,44.99999686959783 " />
			<path d="M330.0,39.999997217420294 L330.0,44.99999686959783 " />
			<path d="M330.0,-39.999997217420294 L330.0,39.999997217420294 " />
			<path d="M330.0,-44.99999686959783 L330.0,-39.999997217420294 " />
			<path d="M357.0,-44.99999686959782 L330.0,-44.99999686959782 " />
			<path d="M357.0,-39.99999721742029 L357.0,-44.99999686959782 " />
			<path d="M357.0,39.9999972174203 L357.0,-39.99999721742029 " />
			<path d="M-330.0,44.99999686959783 L-330.0,39.999997217420294 " />
			<path d="M-357.0,44.99999686959782 L-330.0,44.99999686959782 " />
			<path d="M-357.0,39.99999721742029 L-357.0,44.99999686959782 " />
			<path d="M-357.0,-39.9999972174203 L-357.0,39.99999721742029 " />
			<path d="M-357.0,-44.99999686959784 L-357.0,-39.9999972174203 " />
			<path d="M-330.0,-44.99999686959783 L-357.0,-44.99999686959783 " />
			<path d="M-330.0,-39.999997217420294 L-330.0,-44.99999686959783 " />
			<path d="M-330.0,39.999997217420294 L-330.0,-39.999997217420294 " />
			<path d="M-3.777755770604063e-15,0.0 L-1.0000000000000038,-1.012803085202788e-17 " />
			<path d="M-3.777755770604063e-15,0.0 L-3.767627739047484e-15,-0.9999999304355073 " />
			<path d="M-3.777755770604063e-15,0.0 L-3.777755770604063e-15,0.0003729999740524442 " />
			<path d="M-1.0000000000000038,-1.012803085202788e-17 L-0.9820312500000038,-0.0028645831340600577 L-0.9687500000000038,-0.010416665942036548 L-0.9585937500000038,-0.02109374853262399 L-0.9500000000000037,-0.033333331014516875 " />
			<path d="M-1.0000000000000038,-1.012803085202788e-17 L-0.9820312500000038,0.002864583134060038 L-0.9687500000000038,0.010416665942036527 L-0.9585937500000038,0.02109374853262398 L-0.9500000000000037,0.03333333101451687 " />
			<path d="M-3.767627739047484e-15,-0.9999999304355073 L0.002864583333329567,-0.9820311816854943 L0.0104166666666629,-0.9687499326093977 L0.02109374999999623,-0.958593683315912 L0.03333333333332952,-0.9499999339137318 " />
			<path d="M-3.767627739047484e-15,-0.9999999304355073 L-0.0028645833333370996,-0.9820311816854943 L-0.010416666666670432,-0.9687499326093977 L-0.02109375000000376,-0.958593683315912 L-0.033333333333337045,-0.9499999339137318 " />
			<path d="M-3.777755770604063e-15,0.0003729999740524442 L-3.7757318260162934e-15,-0.002498285503291358 L-3.774180823323395e-15,-0.010055322217173231 L-3.771867054429052e-15,-0.03297898103916704 " />
			<path d="M-3.777755770604063e-15,0.0003729999740524442 L-3.775789851197086e-15,0.0032308807648287366 L-3.774391823980824e-15,0.01077800966689984 L-3.772542256532824e-15,0.033687680989866686 " />
			<path d="M-1.0284424828125038,0.08947753283804037 L-1.0000001000000038,0.08947753283804037 " />
			<path d="M-1.0000001000000038,0.08947753283804037 L-1.0692139671875038,-0.0037841794242554766 " />
			<path d="M-1.0692139671875038,-0.0037841794242554705 L-1.0081788109375038,-0.0894775328380404 " />
			<path d="M-1.0081788109375038,-0.0894775328380404 L-1.0363770531250038,-0.0894775328380404 " />
			<path d="M-1.0363770531250038,-0.0894775328380404 L-1.0688477562500038,-0.04357909853094192 " />
			<path d="M-1.0688477562500038,-0.04357909853094192 L-1.0832520531250038,-0.021606443809458652 " />
			<path d="M-1.0832520531250038,-0.021606443809458618 L-1.0974122093750038,-0.041992184578834746 " />
			<path d="M-1.0974122093750038,-0.041992184578834794 L-1.1334229515625038,-0.0894775328380404 " />
			<path d="M-1.1334229515625038,-0.0894775328380404 L-1.1591797875000038,-0.0894775328380404 " />
			<path d="M-1.1591797875000038,-0.0894775328380404 L-1.0963135765625038,-0.005126952768346127 " />
			<path d="M-1.0963135765625038,-0.005126952768346118 L-1.1640626000000038,0.08947753283804036 " />
			<path d="M-1.1640626000000038,0.08947753283804037 L-1.1347657250000038,0.08947753283804037 " />
			<path d="M-1.1347657250000038,0.08947753283804037 L-1.0897217796875038,0.025634763841730523 " />
			<path d="M-1.0897217796875038,0.025634763841730523 L-1.0819092796875038,0.013671874048922969 " />
			<path d="M-1.0819092796875038,0.013671874048922941 L-1.0733643578125038,0.02709960748982939 " />
			<path d="M-1.0733643578125038,0.027099607489829404 L-1.0284424828125038,0.08947753283804039 " />
			<path d="M-0.08947753906250377,-1.0926513911777551 L-0.08947753906250377,-1.0689697522001564 " />
			<path d="M-0.08947753906250377,-1.0689697522001564 L-0.013671875000003775,-1.0689697522001564 " />
			<path d="M-0.013671875000003775,-1.0689697522001564 L0.08947753906249624,-1.0000000304355006 " />
			<path d="M0.08947753906249624,-1.0000000304355003 L0.08947753906249624,-1.0288086221814452 " />
			<path d="M0.08947753906249624,-1.0288086221814452 L0.03552246093749624,-1.0640869400398267 " />
			<path d="M0.03552246093749623,-1.0640869400398267 L0.005249023437496291,-1.0822754153370546 " />
			<path d="M0.005249023437496224,-1.0822754153370546 L0.03686523437499615,-1.101806663978373 " />
			<path d="M0.036865234374996225,-1.101806663978373 L0.08947753906249623,-1.1364746303167135 " />
			<path d="M0.08947753906249623,-1.1364746303167135 L0.08947753906249623,-1.164062519022576 " />
			<path d="M0.08947753906249623,-1.1640625190225757 L-0.013671875000003775,-1.092651391177755 " />
			<path d="M-0.013671875000003778,-1.0926513911777551 L-0.08947753906250377,-1.0926513911777551 " />
			<path d="M-3.784893005710263e-15,-0.070366741161423 L-3.777755770604063e-15,0.0003730000113524451 " />
			<path d="M-3.777755770604063e-15,0.0003730000113524451 L-3.770618535497863e-15,0.07111274118412789 " />
			<path d="M-3.7706185354978635e-15,0.07111274118412789 L-3.7706185354978635e-15,0.071120936984339 " />
			<path d="M-3.7706185354978635e-15,0.071120936984339 L-3.779867998077253e-15,-0.020511106568081763 " />
			<path d="M-3.7798679980772525e-15,-0.020511106568081753 L-3.781740059744453e-15,-0.03905787017046357 " />
			<path d="M-3.781740059744453e-15,-0.0390578701704636 L-3.771665412088074e-15,0.060795638508277246 " />
			<path d="M-3.771665412088074e-15,0.060795638508277246 L-3.771665412088074e-15,0.06080351558292459 " />
			<path d="M-3.771665412088074e-15,0.06080351558292459 L-3.784597417025969e-15,-0.06737030362572807 " />
			<path d="M-3.784597417025968e-15,-0.06737030362572806 L-3.784597417025968e-15,-0.0673781807003754 " />
			<path d="M-3.784597417025968e-15,-0.0673781807003754 L-3.7744611883936946e-15,0.033039373227213883 " />
			<path d="M-3.7744611883936946e-15,0.03303937322721384 L-3.773365047022768e-15,0.04389894046493757 " />
			<path d="M-3.773365047022769e-15,0.04389894046493758 L-3.784893005710264e-15,-0.07035886408677566 " />
			<path d="M-3.784893005710263e-15,-0.07035886408677565 L-3.784893005710263e-15,-0.070366741161423 " />

        </g>
        </g>
    </svg>
    