<?xml version="1.0" encoding="UTF-8" standalone="no"?>
    <svg
    xmlns:svg="http://www.w3.org/2000/svg"
    xmlns="http://www.w3.org/2000/svg"
    width="240.0"
    height="240.0"
    >
        <g transform="scale(0.1844262295081967, -0.1844262295081967)   translate(596.4444444444445,-158.44443873234547)" stroke-width="5.4222222222222225"  fill="none">
        <!-- hidden lines -->
        <g  stroke="rgb(160,160,160)" fill="none" stroke-dasharray="5.4222222222222225,5.4222222222222225" >
    
        </g>

        <!-- solid lines -->
        <g  stroke="rgb(0,0,0)" fill="none">
    			<path d="M-488.0,49.99999428790103 L-488.0,-49.99999428790092 " />
			<path d="M488.0,49.99999428790103 L-488.0,49.999994287901025 " />
			<path d="M488.0,-49.99999428790092 L488.0,49.99999428790103 " />
			<path d="M-488.0,-49.99999428790092 L488.0,-49.99999428790091 " />
			<path d="M-478.0,39.99999543032084 L-478.0,-39.99999543032072 " />
			<path d="M-462.0,39.99999543032083 L-478.0,39.99999543032083 " />
			<path d="M-435.0,39.99999543032083 L-462.0,39.99999543032083 " />
			<path d="M435.0,39.99999543032084 L-435.0,39.99999543032083 " />
			<path d="M462.0,39.99999543032084 L435.0,39.99999543032084 " />
			<path d="M478.0,39.99999543032084 L462.0,39.99999543032084 " />
			<path d="M478.0,-39.99999543032072 L478.0,39.99999543032084 " />
			<path d="M462.0,-39.999995430320716 L478.0,-39.999995430320716 " />
			<path d="M435.0,-39.999995430320716 L462.0,-39.999995430320716 " />
			<path d="M-435.0,-39.99999543032072 L435.0,-39.999995430320716 " />
			<path d="M-462.0,-39.99999543032072 L-435.0,-39.99999543032072 " />
			<path d="M-478.0,-39.99999543032072 L-462.0,-39.99999543032072 " />
			<path d="M462.0,44.999994859110934 L462.0,39.99999543032084 " />
			<path d="M435.0,44.999994859110934 L462.0,44.999994859110934 " />
			<path d="M435.0,39.999995430320844 L435.0,44.999994859110934 " />
			<path d="M435.0,-39.99999543032072 L435.0,39.999995430320844 " />
			<path d="M435.0,-44.99999485911082 L435.0,-39.99999543032072 " />
			<path d="M462.0,-44.99999485911082 L435.0,-44.99999485911082 " />
			<path d="M462.0,-39.99999543032073 L462.0,-44.99999485911082 " />
			<path d="M462.0,39.99999543032084 L462.0,-39.99999543032073 " />
			<path d="M-435.0,44.999994859110934 L-435.0,39.99999543032084 " />
			<path d="M-462.0,44.999994859110934 L-435.0,44.999994859110934 " />
			<path d="M-462.0,39.999995430320844 L-462.0,44.999994859110934 " />
			<path d="M-462.0,-39.99999543032072 L-462.0,39.999995430320844 " />
			<path d="M-462.0,-44.99999485911082 L-462.0,-39.99999543032072 " />
			<path d="M-435.0,-44.99999485911082 L-462.0,-44.99999485911082 " />
			<path d="M-435.0,-39.99999543032073 L-435.0,-44.99999485911082 " />
			<path d="M-435.0,39.99999543032084 L-435.0,-39.99999543032073 " />
			<path d="M-3.101431208091827e-15,5.684341886080802e-14 L-1.000000000000003,5.683693051174153e-14 " />
			<path d="M-3.101431208091827e-15,5.684341886080802e-14 L-3.0949428582841033e-15,-0.9999998857579627 " />
			<path d="M-3.101431208091827e-15,5.684341886080802e-14 L-3.101431208091827e-15,0.00047799994544917674 " />
			<path d="M-1.000000000000003,5.683693051174153e-14 L-0.9820312500000031,-0.002864583006020824 L-0.9687500000000031,-0.010416665476589202 L-0.9585937500000031,-0.02109374759015139 L-0.9500000000000031,-0.03333332952521044 " />
			<path d="M-1.000000000000003,5.683693051174153e-14 L-0.9820312500000031,0.002864583006134498 L-0.9687500000000031,0.010416665476702875 L-0.9585937500000031,0.021093747590265062 L-0.9500000000000031,0.03333332952532411 " />
			<path d="M-3.0949428582841033e-15,-0.9999998857579627 L0.00286458333333024,-0.9820311378107484 L0.010416666666663575,-0.9687498893280246 L0.021093749999996907,-0.9585936404882948 L0.033333333333330196,-0.9499998914700617 " />
			<path d="M-3.0949428582841033e-15,-0.9999998857579627 L-0.0028645833333364266,-0.9820311378107484 L-0.010416666666669757,-0.9687498893280246 L-0.021093750000003086,-0.9585936404882948 L-0.03333333333333637,-0.9499998914700617 " />
			<path d="M-3.101431208091827e-15,0.00047799994544917674 L-3.0994176896757334e-15,-0.002395172122147253 L-3.0978941741627093e-15,-0.009953603029490374 L-3.095663814641777e-15,-0.03287922957708771 " />
			<path d="M-3.101431208091827e-15,0.00047799994544917674 L-3.0994548625131734e-15,0.0033339938900080685 L-3.098029348117037e-15,0.010879727923801704 L-3.0960963712956254e-15,0.03378742947344684 " />
			<path d="M-1.0284424828125032,0.08947752884046557 L-1.0000001000000032,0.08947752884046557 " />
			<path d="M-1.0000001000000032,0.08947752884046557 L-1.0692139671875032,-0.0037841792551309705 " />
			<path d="M-1.0692139671875032,-0.003784179255130982 L-1.0081788109375032,-0.08947752884035191 " />
			<path d="M-1.0081788109375032,-0.08947752884035189 L-1.0363770531250032,-0.08947752884035189 " />
			<path d="M-1.0363770531250032,-0.08947752884035189 L-1.0688477562500032,-0.04357909658388028 " />
			<path d="M-1.0688477562500032,-0.043579096583880296 L-1.0832520531250032,-0.021606442844080108 " />
			<path d="M-1.0832520531250032,-0.021606442844080073 L-1.0974122093750032,-0.04199218270267245 " />
			<path d="M-1.0974122093750032,-0.0419921827026725 L-1.1334229515625032,-0.0894775288403519 " />
			<path d="M-1.1334229515625032,-0.0894775288403519 L-1.1591797875000032,-0.0894775288403519 " />
			<path d="M-1.1591797875000032,-0.0894775288403519 L-1.0963135765625032,-0.005126952539229873 " />
			<path d="M-1.0963135765625032,-0.005126952539229885 L-1.1640626000000032,0.08947752884046557 " />
			<path d="M-1.1640626000000032,0.08947752884046556 L-1.1347657250000032,0.08947752884046556 " />
			<path d="M-1.1347657250000032,0.08947752884046556 L-1.0897217796875032,0.025634762696490426 " />
			<path d="M-1.0897217796875032,0.025634762696490444 L-1.0819092796875032,0.013671873438154788 " />
			<path d="M-1.0819092796875032,0.01367187343815476 L-1.0733643578125032,0.02709960627914377 " />
			<path d="M-1.0733643578125032,0.027099606279143786 L-1.0284424828125032,0.08947752884046559 " />
			<path d="M-0.0894775390625031,-1.0926513423607758 L-0.0894775390625031,-1.0689697044412132 " />
			<path d="M-0.08947753906250311,-1.0689697044412132 L-0.013671875000003109,-1.0689697044412132 " />
			<path d="M-0.013671875000003102,-1.0689697044412132 L0.08947753906249692,-0.9999999857579513 " />
			<path d="M0.0894775390624969,-0.9999999857579513 L0.0894775390624969,-1.0288085762168004 " />
			<path d="M0.0894775390624969,-1.0288085762168007 L0.0355224609374969,-1.0640868924990354 " />
			<path d="M0.0355224609374969,-1.0640868924990354 L0.005249023437496961,-1.0822753669836478 " />
			<path d="M0.005249023437496896,-1.0822753669836478 L0.036865234374996815,-1.101806614752359 " />
			<path d="M0.03686523437499689,-1.101806614752359 L0.08947753906249688,-1.1364745795418216 " />
			<path d="M0.0894775390624969,-1.1364745795418216 L0.0894775390624969,-1.1640624670151263 " />
			<path d="M0.0894775390624969,-1.1640624670151265 L-0.013671875000003095,-1.0926513423607758 " />
			<path d="M-0.013671875000003105,-1.0926513423607758 L-0.08947753906250311,-1.0926513423607758 " />
			<path d="M-3.108825913360803e-15,-0.07026173801905214 L-3.101431208091827e-15,0.0004779999932491702 " />
			<path d="M-3.101431208091827e-15,0.0004779999932491702 L-3.0940365028228507e-15,0.07121773800555048 " />
			<path d="M-3.0940365028228507e-15,0.07121773800555048 L-3.0940365028228507e-15,0.0712282409340381 " />
			<path d="M-3.0940365028228507e-15,0.07122824093403811 L-3.103619632515691e-15,-0.020391763003406893 " />
			<path d="M-3.1036196325156914e-15,-0.02039176300340689 L-3.1055592273403405e-15,-0.03893629555281125 " />
			<path d="M-3.1055592273403405e-15,-0.03893629555281129 L-3.0951211446655824e-15,0.060917208664725345 " />
			<path d="M-3.0951211446655824e-15,0.060917208664725345 L-3.0951211446655824e-15,0.060927303145994004 " />
			<path d="M-3.0951211446655824e-15,0.060927303145994004 L-3.1085196615463846e-15,-0.06724651033617401 " />
			<path d="M-3.1085196615463846e-15,-0.06724651033617403 L-3.1085196615463846e-15,-0.06725660481744268 " />
			<path d="M-3.1085196615463846e-15,-0.06725660481744268 L-3.098017776410289e-15,0.03314790934691113 " />
			<path d="M-3.098017776410289e-15,0.03314790934691109 L-3.0968820925984877e-15,0.04400615590917774 " />
			<path d="M-3.0968820925984877e-15,0.04400615590917774 L-3.1088259133608027e-15,-0.07025164353778349 " />
			<path d="M-3.108825913360803e-15,-0.07025164353778347 L-3.108825913360803e-15,-0.07026173801905213 " />

        </g>
        </g>
    </svg>
    