<?xml version="1.0" encoding="UTF-8" standalone="no"?>
    <svg
    xmlns:svg="http://www.w3.org/2000/svg"
    xmlns="http://www.w3.org/2000/svg"
    width="240.0"
    height="240.0"
    >
        <g transform="scale(0.6923076923076923, -0.6923076923076923)   translate(158.88888888888889,-158.88888888888889)" stroke-width="1.4444444444444444"  fill="none">
        <!-- hidden lines -->
        <g  stroke="rgb(160,160,160)" fill="none" stroke-dasharray="1.4444444444444444,1.4444444444444444" >
    
        </g>

        <!-- solid lines -->
        <g  stroke="rgb(0,0,0)" fill="none">
    			<path d="M130.0,-130.0 L130.0,130.0 " />
			<path d="M-130.0,-130.0 L130.0,-130.0 " />
			<path d="M-130.0,130.0 L-130.0,-130.0 " />
			<path d="M130.0,130.0 L-130.0,130.0 " />
			<path d="M120.0,-120.0 L120.0,120.0 " />
			<path d="M-120.0,-120.0 L120.0,-120.0 " />
			<path d="M-120.0,120.0 L-120.0,-120.0 " />
			<path d="M120.0,120.0 L-120.0,120.0 " />
			<path d="M33.0,-33.0 L33.0,33.0 " />
			<path d="M-33.0,-33.0 L33.0,-33.0 " />
			<path d="M-33.0,33.0 L-33.0,-33.0 " />
			<path d="M33.0,33.0 L-33.0,33.0 " />
			<path d="M35.25,-46.5 L35.246002557997265,-46.2951655266169 L35.234016319433856,-46.09064298234904 L35.21405953737395,-45.88674382129507 L35.18616260270473,-45.68377854824384 L35.15036799785606,-45.482056245826826 L35.106730232106756,-45.28188410383622 L35.055315758575944,-45.083566951425624 L34.996202873025936,-44.88740679290547 L34.92948159463066,-44.69370234784032 L34.85525352889136,-44.502748596148194 L34.77363171290813,-44.314836328894835 L34.684740443243086,-44.1302517054669 L34.5887150866372,-43.94927581779837 L34.48570187386906,-43.77218426231397 L34.37585767706956,-43.59924672024121 L34.25934977083146,-43.43072654693037 L34.13635557747785,-43.2668803708078 L34.007062396877124,-43.107957702573074 L33.87166712121627,-42.9542005552354 L33.73037593516648,-42.805843075567736 L33.58340400189793,-42.66311118753985 L33.4309751354218,-42.52622224827339 L33.27332145975835,-42.395384717042845 L33.11068305545046,-42.27079783782645 L32.943307593960455,-42.15265133589049 L32.771449960507375,-42.04112512886898 L32.59537186591883,-41.936389052778814 L32.415341448088554,-41.83860260338753 L32.231632863646645,-41.747914693327544 L32.04452587046424,-41.66446342532678 L31.854305401628395,-41.588375881901 L31.66126113153603,-41.51976793182811 L31.465687034767583,-41.4587440536991 L31.26788093841223,-41.405397176814375 L31.068144068526333,-41.3598085396678 L30.866780591415864,-41.322047566233856 L30.66409715044129,-41.29217176024633 L30.46040239905031,-41.27022661762972 L30.256006530749566,-41.25624555721632 L30.051220806731113,-41.25024986985497 L29.84635708187295,-41.252248685988505 L29.641727329835486,-41.26223896174967 L29.437643167977125,-41.28020548359639 L29.234415382812426,-41.306120891479495 L29.032353456735493,-41.33994572050756 L28.831765096729356,-41.38162846104542 L28.63295576577899,-41.43110563715487 L28.43622821770157,-41.48830190325802 L28.241882036102332,-41.553130158876186 L28.0502131781582,-41.62549168126958 L27.861513523923783,-41.705276275775724 L27.67607043184622,-41.792362443617755 L27.49416630116566,-41.886617566927036 L27.3160781418678,-41.987898110698275 L27.142077152843367,-42.09604984136967 L26.97242830889695,-42.21090806169518 L26.80738995723408,-42.33229786155126 L26.647213424041038,-42.46003438429615 L26.492142631756543,-42.593923108276016 L26.34241372761811,-42.733760143049366 L26.198254724048756,-42.87933253987854 L26.059885151431704,-43.030418616015524 L25.927515723801797,-43.18678829228823 L25.801348017962802,-43.34820344347306 L25.681574166519177,-43.514418260920415 L25.56837656528982,-43.68517962688069 L25.461927595549305,-43.86022749996083 L25.36238936151964,-44.03929531112451 L25.269913443512298,-44.22211036963282 L25.184640667096367,-44.40839427830724 L25.10670088864448,-44.59786335748262 L25.03621279758294,-44.790229077004575 L24.973283735647335,-44.98519849561325 L24.918009533418754,-45.182474707044555 L24.87047436438964,-45.38175729216948 L24.830750616781437,-45.582742776482796 L24.798898783309262,-45.78512509224472 L24.774967369061493,-45.98859604457158 L24.758992817634514,-46.19284578076579 L24.750999455635117,-46.397563262170394 L24.750999455635117,-46.602436737829635 L24.758992817634514,-46.80715421923424 L24.774967369061496,-47.011403955428456 L24.798898783309266,-47.214874907755316 L24.83075061678144,-47.41725722351724 L24.870474364389647,-47.618242707830554 L24.91800953341876,-47.81752529295547 L24.973283735647342,-48.01480150438679 L25.03621279758295,-48.20977092299545 L25.10670088864449,-48.402136642517405 L25.18464066709638,-48.591605721692794 L25.269913443512312,-48.777889630367206 L25.362389361519657,-48.960704688875516 L25.46192759554932,-49.1397725000392 L25.56837656528984,-49.31482037311934 L25.681574166519198,-49.48558173907961 L25.80134801796282,-49.65179655652697 L25.927515723801818,-49.8132117077118 L26.059885151431725,-49.9695813839845 L26.19825472404878,-50.12066746012149 L26.342413727618133,-50.26623985695066 L26.492142631756565,-50.406076891724005 L26.647213424041063,-50.53996561570387 L26.807389957234104,-50.66770213844876 L26.972428308896973,-50.789091938304836 L27.142077152843388,-50.903950158630344 L27.31607814186782,-51.01210188930173 L27.494166301165677,-51.11338243307297 L27.676070431846234,-51.20763755638225 L27.861513523923797,-51.29472372422428 L28.050213178158213,-51.37450831873042 L28.241882036102343,-51.446869841123814 L28.436228217701576,-51.51169809674198 L28.632955765779002,-51.56889436284513 L28.831765096729367,-51.61837153895458 L29.0323534567355,-51.66005427949244 L29.234415382812433,-51.693879108520505 L29.437643167977132,-51.71979451640361 L29.64172732983549,-51.73776103825033 L29.846357081872952,-51.747751314011495 L30.051220806731113,-51.74975013014503 L30.256006530749566,-51.74375444278368 L30.46040239905031,-51.72977338237028 L30.66409715044129,-51.70782823975367 L30.866780591415864,-51.67795243376615 L31.06814406852633,-51.6401914603322 L31.267880938412226,-51.594602823185625 L31.46568703476758,-51.54125594630091 L31.661261131536023,-51.48023206817189 L31.854305401628388,-51.411624118099 L32.04452587046423,-51.33553657467323 L32.23163286364664,-51.25208530667246 L32.41534144808854,-51.16139739661247 L32.595371865918814,-51.06361094722119 L32.77144996050736,-50.95887487113103 L32.94330759396044,-50.84734866410952 L33.110683055450444,-50.72920216217356 L33.273321459758336,-50.60461528295717 L33.43097513542178,-50.47377775172662 L33.58340400189792,-50.33688881246016 L33.730375935166464,-50.19415692443228 L33.87166712121625,-50.04579944476462 L34.00706239687711,-49.89204229742695 L34.13635557747783,-49.73311962919222 L34.25934977083145,-49.56927345306964 L34.37585767706955,-49.40075327975882 L34.48570187386905,-49.22781573768605 L34.58871508663719,-49.05072418220165 L34.68474044324307,-48.86974829453313 L34.77363171290811,-48.685163671105194 L34.855253528891346,-48.497251403851834 L34.92948159463065,-48.30629765215971 L34.99620287302592,-48.112593207094555 L35.05531575857594,-47.91643304857441 L35.10673023210674,-47.71811589616382 L35.15036799785605,-47.51794375417322 L35.18616260270472,-47.31622145175619 L35.21405953737394,-47.11325617870497 L35.23401631943385,-46.909357017651004 L35.246002557997265,-46.70483447338315 L35.25,-46.50000000000005 " />
			<path d="M35.25,46.5 L35.246002557997265,46.7048344733831 L35.234016319433856,46.90935701765096 L35.21405953737395,47.11325617870493 L35.18616260270473,47.31622145175616 L35.15036799785606,47.517943754173174 L35.106730232106756,47.71811589616378 L35.055315758575944,47.916433048574376 L34.996202873025936,48.11259320709453 L34.92948159463066,48.30629765215968 L34.85525352889136,48.497251403851806 L34.77363171290813,48.685163671105165 L34.684740443243086,48.8697482945331 L34.5887150866372,49.05072418220163 L34.48570187386906,49.22781573768603 L34.37585767706956,49.40075327975879 L34.25934977083146,49.56927345306963 L34.13635557747785,49.7331196291922 L34.007062396877124,49.892042297426926 L33.87166712121627,50.0457994447646 L33.73037593516648,50.194156924432264 L33.58340400189793,50.33688881246015 L33.4309751354218,50.47377775172661 L33.27332145975835,50.604615282957155 L33.11068305545046,50.72920216217355 L32.943307593960455,50.84734866410951 L32.771449960507375,50.95887487113102 L32.59537186591883,51.063610947221186 L32.415341448088554,51.16139739661247 L32.231632863646645,51.252085306672456 L32.04452587046424,51.33553657467322 L31.854305401628395,51.411624118099 L31.66126113153603,51.48023206817189 L31.465687034767583,51.5412559463009 L31.26788093841223,51.594602823185625 L31.068144068526333,51.6401914603322 L30.866780591415864,51.677952433766144 L30.66409715044129,51.70782823975367 L30.46040239905031,51.72977338237028 L30.256006530749566,51.74375444278368 L30.051220806731113,51.74975013014503 L29.84635708187295,51.747751314011495 L29.641727329835486,51.73776103825033 L29.437643167977125,51.71979451640361 L29.234415382812426,51.693879108520505 L29.032353456735493,51.66005427949244 L28.831765096729356,51.61837153895458 L28.63295576577899,51.56889436284513 L28.43622821770157,51.51169809674198 L28.241882036102332,51.446869841123814 L28.0502131781582,51.37450831873042 L27.861513523923783,51.294723724224276 L27.67607043184622,51.207637556382245 L27.49416630116566,51.113382433072964 L27.3160781418678,51.012101889301725 L27.142077152843367,50.90395015863033 L26.97242830889695,50.78909193830482 L26.80738995723408,50.66770213844874 L26.647213424041038,50.53996561570385 L26.492142631756543,50.406076891723984 L26.34241372761811,50.266239856950634 L26.198254724048756,50.12066746012146 L26.059885151431704,49.969581383984476 L25.927515723801797,49.81321170771177 L25.801348017962802,49.65179655652694 L25.681574166519177,49.485581739079585 L25.56837656528982,49.31482037311931 L25.461927595549305,49.13977250003917 L25.36238936151964,48.96070468887549 L25.269913443512298,48.77788963036718 L25.184640667096367,48.59160572169276 L25.10670088864448,48.40213664251738 L25.03621279758294,48.209770922995425 L24.973283735647335,48.01480150438675 L24.918009533418754,47.817525292955445 L24.87047436438964,47.61824270783052 L24.830750616781437,47.417257223517204 L24.798898783309262,47.21487490775528 L24.774967369061493,47.01140395542842 L24.758992817634514,46.80715421923421 L24.750999455635117,46.602436737829606 L24.750999455635117,46.397563262170365 L24.758992817634514,46.19284578076576 L24.774967369061496,45.988596044571544 L24.798898783309266,45.785125092244684 L24.83075061678144,45.58274277648276 L24.870474364389647,45.381757292169446 L24.91800953341876,45.18247470704453 L24.973283735647342,44.98519849561321 L25.03621279758295,44.79022907700455 L25.10670088864449,44.597863357482595 L25.18464066709638,44.408394278307206 L25.269913443512312,44.222110369632794 L25.362389361519657,44.039295311124484 L25.46192759554932,43.8602274999608 L25.56837656528984,43.68517962688066 L25.681574166519198,43.51441826092039 L25.80134801796282,43.34820344347303 L25.927515723801818,43.1867882922882 L26.059885151431725,43.0304186160155 L26.19825472404878,42.87933253987851 L26.342413727618133,42.73376014304934 L26.492142631756565,42.593923108275995 L26.647213424041063,42.46003438429613 L26.807389957234104,42.33229786155124 L26.972428308896973,42.210908061695164 L27.142077152843388,42.096049841369656 L27.31607814186782,41.98789811069827 L27.494166301165677,41.88661756692703 L27.676070431846234,41.79236244361775 L27.861513523923797,41.70527627577572 L28.050213178158213,41.62549168126958 L28.241882036102343,41.553130158876186 L28.436228217701576,41.48830190325802 L28.632955765779002,41.43110563715487 L28.831765096729367,41.38162846104542 L29.0323534567355,41.33994572050756 L29.234415382812433,41.306120891479495 L29.437643167977132,41.28020548359639 L29.64172732983549,41.26223896174967 L29.846357081872952,41.252248685988505 L30.051220806731113,41.25024986985497 L30.256006530749566,41.25624555721632 L30.46040239905031,41.27022661762972 L30.66409715044129,41.29217176024633 L30.866780591415864,41.32204756623385 L31.06814406852633,41.3598085396678 L31.267880938412226,41.405397176814375 L31.46568703476758,41.45874405369909 L31.661261131536023,41.51976793182811 L31.854305401628388,41.588375881901 L32.04452587046423,41.66446342532677 L32.23163286364664,41.74791469332754 L32.41534144808854,41.83860260338753 L32.595371865918814,41.93638905277881 L32.77144996050736,42.04112512886897 L32.94330759396044,42.15265133589048 L33.110683055450444,42.27079783782644 L33.273321459758336,42.39538471704283 L33.43097513542178,42.52622224827338 L33.58340400189792,42.66311118753984 L33.730375935166464,42.80584307556772 L33.87166712121625,42.95420055523538 L34.00706239687711,43.10795770257305 L34.13635557747783,43.26688037080778 L34.25934977083145,43.43072654693036 L34.37585767706955,43.59924672024118 L34.48570187386905,43.77218426231395 L34.58871508663719,43.94927581779835 L34.68474044324307,44.13025170546687 L34.77363171290811,44.314836328894806 L34.855253528891346,44.502748596148166 L34.92948159463065,44.69370234784029 L34.99620287302592,44.887406792905445 L35.05531575857594,45.08356695142559 L35.10673023210674,45.28188410383618 L35.15036799785605,45.48205624582678 L35.18616260270472,45.68377854824381 L35.21405953737394,45.88674382129503 L35.23401631943385,46.090642982348996 L35.246002557997265,46.29516552661685 L35.25,46.49999999999995 " />
			<path d="M-24.75,46.5 L-24.753997442002735,46.7048344733831 L-24.765983680566144,46.90935701765096 L-24.78594046262605,47.11325617870493 L-24.813837397295273,47.31622145175616 L-24.84963200214394,47.517943754173174 L-24.893269767893244,47.71811589616378 L-24.944684241424053,47.916433048574376 L-25.003797126974064,48.11259320709453 L-25.070518405369338,48.30629765215968 L-25.14474647110864,48.497251403851806 L-25.22636828709187,48.685163671105165 L-25.315259556756914,48.8697482945331 L-25.4112849133628,49.05072418220163 L-25.514298126130935,49.22781573768603 L-25.62414232293044,49.40075327975879 L-25.740650229168534,49.56927345306963 L-25.863644422522153,49.7331196291922 L-25.992937603122876,49.892042297426926 L-26.128332878783734,50.0457994447646 L-26.269624064833526,50.194156924432264 L-26.416595998102064,50.33688881246015 L-26.569024864578203,50.47377775172661 L-26.726678540241647,50.604615282957155 L-26.88931694454954,50.72920216217355 L-27.05669240603955,50.84734866410951 L-27.228550039492625,50.95887487113102 L-27.40462813408117,51.063610947221186 L-27.58465855191145,51.16139739661247 L-27.768367136353355,51.252085306672456 L-27.955474129535762,51.33553657467322 L-28.145694598371605,51.411624118099 L-28.33873886846397,51.48023206817189 L-28.534312965232417,51.5412559463009 L-28.73211906158777,51.594602823185625 L-28.931855931473667,51.6401914603322 L-29.133219408584136,51.677952433766144 L-29.33590284955871,51.70782823975367 L-29.53959760094969,51.72977338237028 L-29.743993469250434,51.74375444278368 L-29.948779193268887,51.74975013014503 L-30.15364291812705,51.747751314011495 L-30.358272670164514,51.73776103825033 L-30.562356832022875,51.71979451640361 L-30.765584617187574,51.693879108520505 L-30.967646543264507,51.66005427949244 L-31.168234903270644,51.61837153895458 L-31.36704423422101,51.56889436284513 L-31.56377178229843,51.51169809674198 L-31.758117963897668,51.446869841123814 L-31.9497868218418,51.37450831873042 L-32.13848647607622,51.294723724224276 L-32.32392956815378,51.207637556382245 L-32.50583369883434,51.113382433072964 L-32.6839218581322,51.012101889301725 L-32.85792284715663,50.90395015863033 L-33.02757169110305,50.78909193830482 L-33.19261004276592,50.66770213844874 L-33.352786575958966,50.53996561570385 L-33.50785736824346,50.406076891723984 L-33.65758627238189,50.266239856950634 L-33.80174527595124,50.12066746012146 L-33.9401148485683,49.969581383984476 L-34.0724842761982,49.81321170771177 L-34.1986519820372,49.65179655652694 L-34.31842583348082,49.485581739079585 L-34.43162343471018,49.31482037311931 L-34.538072404450695,49.13977250003917 L-34.63761063848036,48.96070468887549 L-34.730086556487706,48.77788963036718 L-34.81535933290363,48.59160572169276 L-34.89329911135552,48.40213664251738 L-34.96378720241706,48.209770922995425 L-35.026716264352665,48.01480150438675 L-35.081990466581246,47.817525292955445 L-35.129525635610364,47.61824270783052 L-35.16924938321856,47.417257223517204 L-35.20110121669074,47.21487490775528 L-35.22503263093851,47.01140395542842 L-35.241007182365486,46.80715421923421 L-35.24900054436488,46.602436737829606 L-35.24900054436488,46.397563262170365 L-35.241007182365486,46.19284578076576 L-35.2250326309385,45.988596044571544 L-35.20110121669073,45.785125092244684 L-35.169249383218556,45.58274277648276 L-35.12952563561035,45.381757292169446 L-35.08199046658124,45.18247470704453 L-35.02671626435266,44.98519849561321 L-34.96378720241705,44.79022907700455 L-34.89329911135551,44.597863357482595 L-34.81535933290362,44.408394278307206 L-34.73008655648769,44.222110369632794 L-34.63761063848034,44.039295311124484 L-34.53807240445068,43.8602274999608 L-34.43162343471016,43.68517962688066 L-34.3184258334808,43.51441826092039 L-34.19865198203718,43.34820344347303 L-34.07248427619818,43.1867882922882 L-33.94011484856827,43.0304186160155 L-33.80174527595122,42.87933253987851 L-33.65758627238187,42.73376014304934 L-33.507857368243435,42.593923108275995 L-33.35278657595894,42.46003438429613 L-33.1926100427659,42.33229786155124 L-33.02757169110303,42.210908061695164 L-32.857922847156615,42.096049841369656 L-32.68392185813218,41.98789811069827 L-32.50583369883432,41.88661756692703 L-32.323929568153766,41.79236244361775 L-32.1384864760762,41.70527627577572 L-31.949786821841787,41.62549168126958 L-31.758117963897657,41.553130158876186 L-31.563771782298424,41.48830190325802 L-31.367044234220998,41.43110563715487 L-31.168234903270633,41.38162846104542 L-30.9676465432645,41.33994572050756 L-30.765584617187567,41.306120891479495 L-30.562356832022868,41.28020548359639 L-30.35827267016451,41.26223896174967 L-30.153642918127048,41.252248685988505 L-29.948779193268887,41.25024986985497 L-29.743993469250434,41.25624555721632 L-29.53959760094969,41.27022661762972 L-29.33590284955871,41.29217176024633 L-29.133219408584136,41.32204756623385 L-28.93185593147367,41.3598085396678 L-28.732119061587774,41.405397176814375 L-28.53431296523242,41.45874405369909 L-28.338738868463977,41.51976793182811 L-28.145694598371612,41.588375881901 L-27.955474129535773,41.66446342532677 L-27.768367136353362,41.74791469332754 L-27.58465855191146,41.83860260338753 L-27.404628134081186,41.93638905277881 L-27.22855003949264,42.04112512886897 L-27.05669240603956,42.15265133589048 L-26.889316944549556,42.27079783782644 L-26.72667854024166,42.39538471704283 L-26.569024864578218,42.52622224827338 L-26.41659599810208,42.66311118753984 L-26.26962406483354,42.80584307556772 L-26.12833287878375,42.95420055523538 L-25.99293760312289,43.10795770257305 L-25.863644422522167,43.26688037080778 L-25.740650229168548,43.43072654693036 L-25.624142322930453,43.59924672024118 L-25.51429812613095,43.77218426231395 L-25.411284913362813,43.94927581779835 L-25.315259556756924,44.13025170546687 L-25.226368287091884,44.314836328894806 L-25.144746471108654,44.502748596148166 L-25.07051840536935,44.69370234784029 L-25.003797126974078,44.887406792905445 L-24.944684241424063,45.08356695142559 L-24.893269767893255,45.28188410383618 L-24.84963200214395,45.48205624582678 L-24.81383739729528,45.68377854824381 L-24.78594046262606,45.88674382129503 L-24.76598368056615,46.090642982348996 L-24.753997442002735,46.29516552661685 L-24.75,46.49999999999995 " />
			<path d="M-24.75,-46.5 L-24.753997442002735,-46.2951655266169 L-24.765983680566144,-46.09064298234904 L-24.78594046262605,-45.88674382129507 L-24.813837397295273,-45.68377854824384 L-24.84963200214394,-45.482056245826826 L-24.893269767893244,-45.28188410383622 L-24.944684241424053,-45.083566951425624 L-25.003797126974064,-44.88740679290547 L-25.070518405369338,-44.69370234784032 L-25.14474647110864,-44.502748596148194 L-25.22636828709187,-44.314836328894835 L-25.315259556756914,-44.1302517054669 L-25.4112849133628,-43.94927581779837 L-25.514298126130935,-43.77218426231397 L-25.62414232293044,-43.59924672024121 L-25.740650229168534,-43.43072654693037 L-25.863644422522153,-43.2668803708078 L-25.992937603122876,-43.107957702573074 L-26.128332878783734,-42.9542005552354 L-26.269624064833526,-42.805843075567736 L-26.416595998102064,-42.66311118753985 L-26.569024864578203,-42.52622224827339 L-26.726678540241647,-42.395384717042845 L-26.88931694454954,-42.27079783782645 L-27.05669240603955,-42.15265133589049 L-27.228550039492625,-42.04112512886898 L-27.40462813408117,-41.936389052778814 L-27.58465855191145,-41.83860260338753 L-27.768367136353355,-41.747914693327544 L-27.955474129535762,-41.66446342532678 L-28.145694598371605,-41.588375881901 L-28.33873886846397,-41.51976793182811 L-28.534312965232417,-41.4587440536991 L-28.73211906158777,-41.405397176814375 L-28.931855931473667,-41.3598085396678 L-29.133219408584136,-41.322047566233856 L-29.33590284955871,-41.29217176024633 L-29.53959760094969,-41.27022661762972 L-29.743993469250434,-41.25624555721632 L-29.948779193268887,-41.25024986985497 L-30.15364291812705,-41.252248685988505 L-30.358272670164514,-41.26223896174967 L-30.562356832022875,-41.28020548359639 L-30.765584617187574,-41.306120891479495 L-30.967646543264507,-41.33994572050756 L-31.168234903270644,-41.38162846104542 L-31.36704423422101,-41.43110563715487 L-31.56377178229843,-41.48830190325802 L-31.758117963897668,-41.553130158876186 L-31.9497868218418,-41.62549168126958 L-32.13848647607622,-41.705276275775724 L-32.32392956815378,-41.792362443617755 L-32.50583369883434,-41.886617566927036 L-32.6839218581322,-41.987898110698275 L-32.85792284715663,-42.09604984136967 L-33.02757169110305,-42.21090806169518 L-33.19261004276592,-42.33229786155126 L-33.352786575958966,-42.46003438429615 L-33.50785736824346,-42.593923108276016 L-33.65758627238189,-42.733760143049366 L-33.80174527595124,-42.87933253987854 L-33.9401148485683,-43.030418616015524 L-34.0724842761982,-43.18678829228823 L-34.1986519820372,-43.34820344347306 L-34.31842583348082,-43.514418260920415 L-34.43162343471018,-43.68517962688069 L-34.538072404450695,-43.86022749996083 L-34.63761063848036,-44.03929531112451 L-34.730086556487706,-44.22211036963282 L-34.81535933290363,-44.40839427830724 L-34.89329911135552,-44.59786335748262 L-34.96378720241706,-44.790229077004575 L-35.026716264352665,-44.98519849561325 L-35.081990466581246,-45.182474707044555 L-35.129525635610364,-45.38175729216948 L-35.16924938321856,-45.582742776482796 L-35.20110121669074,-45.78512509224472 L-35.22503263093851,-45.98859604457158 L-35.241007182365486,-46.19284578076579 L-35.24900054436488,-46.397563262170394 L-35.24900054436488,-46.602436737829635 L-35.241007182365486,-46.80715421923424 L-35.2250326309385,-47.011403955428456 L-35.20110121669073,-47.214874907755316 L-35.169249383218556,-47.41725722351724 L-35.12952563561035,-47.618242707830554 L-35.08199046658124,-47.81752529295547 L-35.02671626435266,-48.01480150438679 L-34.96378720241705,-48.20977092299545 L-34.89329911135551,-48.402136642517405 L-34.81535933290362,-48.591605721692794 L-34.73008655648769,-48.777889630367206 L-34.63761063848034,-48.960704688875516 L-34.53807240445068,-49.1397725000392 L-34.43162343471016,-49.31482037311934 L-34.3184258334808,-49.48558173907961 L-34.19865198203718,-49.65179655652697 L-34.07248427619818,-49.8132117077118 L-33.94011484856827,-49.9695813839845 L-33.80174527595122,-50.12066746012149 L-33.65758627238187,-50.26623985695066 L-33.507857368243435,-50.406076891724005 L-33.35278657595894,-50.53996561570387 L-33.1926100427659,-50.66770213844876 L-33.02757169110303,-50.789091938304836 L-32.857922847156615,-50.903950158630344 L-32.68392185813218,-51.01210188930173 L-32.50583369883432,-51.11338243307297 L-32.323929568153766,-51.20763755638225 L-32.1384864760762,-51.29472372422428 L-31.949786821841787,-51.37450831873042 L-31.758117963897657,-51.446869841123814 L-31.563771782298424,-51.51169809674198 L-31.367044234220998,-51.56889436284513 L-31.168234903270633,-51.61837153895458 L-30.9676465432645,-51.66005427949244 L-30.765584617187567,-51.693879108520505 L-30.562356832022868,-51.71979451640361 L-30.35827267016451,-51.73776103825033 L-30.153642918127048,-51.747751314011495 L-29.948779193268887,-51.74975013014503 L-29.743993469250434,-51.74375444278368 L-29.53959760094969,-51.72977338237028 L-29.33590284955871,-51.70782823975367 L-29.133219408584136,-51.67795243376615 L-28.93185593147367,-51.6401914603322 L-28.732119061587774,-51.594602823185625 L-28.53431296523242,-51.54125594630091 L-28.338738868463977,-51.48023206817189 L-28.145694598371612,-51.411624118099 L-27.955474129535773,-51.33553657467323 L-27.768367136353362,-51.25208530667246 L-27.58465855191146,-51.16139739661247 L-27.404628134081186,-51.06361094722119 L-27.22855003949264,-50.95887487113103 L-27.05669240603956,-50.84734866410952 L-26.889316944549556,-50.72920216217356 L-26.72667854024166,-50.60461528295717 L-26.569024864578218,-50.47377775172662 L-26.41659599810208,-50.33688881246016 L-26.26962406483354,-50.19415692443228 L-26.12833287878375,-50.04579944476462 L-25.99293760312289,-49.89204229742695 L-25.863644422522167,-49.73311962919222 L-25.740650229168548,-49.56927345306964 L-25.624142322930453,-49.40075327975882 L-25.51429812613095,-49.22781573768605 L-25.411284913362813,-49.05072418220165 L-25.315259556756924,-48.86974829453313 L-25.226368287091884,-48.685163671105194 L-25.144746471108654,-48.497251403851834 L-25.07051840536935,-48.30629765215971 L-25.003797126974078,-48.112593207094555 L-24.944684241424063,-47.91643304857441 L-24.893269767893255,-47.71811589616382 L-24.84963200214395,-47.51794375417322 L-24.81383739729528,-47.31622145175619 L-24.78594046262606,-47.11325617870497 L-24.76598368056615,-46.909357017651004 L-24.753997442002735,-46.70483447338315 L-24.75,-46.50000000000005 " />
			<path d="M55.0,-60.0 L-55.0,-60.0 " />
			<path d="M55.0,-60.0 L55.003986580493965,-60.19962442765259 L55.01593996484625,-60.398930527765415 L55.035841091805295,-60.597600480414066 L55.06365822639328,-60.795317480095356 L55.09934701051174,-60.99176624091559 L55.14285053367645,-61.18663349935557 L55.19409942376864,-61.379608513810744 L55.25301195765809,-61.57038356010974 L55.319494191521414,-61.75865442222122 L55.39344011064793,-61.94412087736659 L55.47473179849412,-62.126487174764925 L55.56323962471714,-62.305462507246624 L55.65882245188756,-62.480761474983936 L55.76132786055164,-62.65210454059871 L55.870592392284294,-62.81921847492167 L55.98644181034518,-62.9818367926925 L56.10869137752216,-63.13970017750575 L56.2371461507193,-63.292556895325184 L56.37160129181931,-63.44016319590695 L56.511842394325065,-63.58228370149157 L56.65764582525909,-63.7186917821449 L56.80877908177589,-63.849169917149524 L56.9650011619185,-63.97351004187028 L57.12606294892795,-64.09151387954084 L57.291707608492885,-64.20299325744222 L57.46167099830579,-64.30777040696903 L57.63568208927287,-64.40567824710507 L57.81346339770572,-64.4965606508561 L57.99473142780579,-64.58027269421486 L58.17919712373589,-64.65668088726169 L58.36656633055794,-64.72566338703182 L58.5565402633019,-64.78711019181003 L58.74881598341791,-64.84092331654298 L58.94308688185188,-64.88701694908933 L59.1390431679741,-64.92531758705852 L59.3363723635814,-64.95576415502003 L59.53475980118493,-64.97830810189632 L59.73388912578912,-64.99291347838381 L59.933442799361444,-64.9995569942789 L60.13310260718889,-64.99822805561726 L60.33255016531333,-64.98892878156725 L60.531467428236844,-64.97167400105069 L60.72953719608733,-64.94649122909614 L60.92644362043559,-64.9134206229626 L61.12187270795746,-64.8725149181034 L61.31551282113763,-64.82383934407257 L61.50705517521687,-64.76747152050771 L61.696194330590174,-64.70350133335516 L61.88262867987056,-64.63203079153506 L62.06606092884192,-64.55317386427456 L62.24619857053397,-64.46705629936888 L62.42275435166328,-64.37381542265979 L62.59544673069658,-64.27359991905143 L62.764000326806,-64.16656959541255 L62.928146359000145,-64.05289512574335 L63.08762307473099,-63.93275777901319 L63.242176167292854,-63.80634913010331 L63.391559181348114,-63.67387075431531 L63.535533905932766,-63.53553390593271 L63.67387075431537,-63.39155918134805 L63.806349130103364,-63.24217616729279 L63.932757779013244,-63.08762307473092 L64.0528951257434,-62.928146359000074 L64.1665695954126,-62.76400032680593 L64.27359991905148,-62.59544673069651 L64.37381542265983,-62.4227543516632 L64.46705629936892,-62.24619857053389 L64.55317386427458,-62.066060928841836 L64.63203079153509,-61.88262867987048 L64.70350133335519,-61.696194330590096 L64.76747152050773,-61.50705517521679 L64.8238393440726,-61.315512821137546 L64.87251491810342,-61.12187270795738 L64.91342062296262,-60.926443620435506 L64.94649122909615,-60.72953719608724 L64.97167400105069,-60.53146742823676 L64.98892878156725,-60.332550165313236 L64.99822805561726,-60.1331026071888 L64.9995569942789,-59.93344279936136 L64.99291347838381,-59.733889125789034 L64.97830810189632,-59.53475980118485 L64.95576415502002,-59.33637236358131 L64.9253175870585,-59.139043167974016 L64.88701694908931,-58.9430868818518 L64.84092331654296,-58.748815983417835 L64.78711019181,-58.55654026330181 L64.72566338703179,-58.36656633055785 L64.65668088726166,-58.179197123735804 L64.58027269421481,-57.99473142780571 L64.49656065085605,-57.81346339770564 L64.40567824710504,-57.63568208927279 L64.30777040696898,-57.46167099830572 L64.20299325744216,-57.291707608492814 L64.09151387954078,-57.12606294892788 L63.97351004187023,-56.96500116191843 L63.84916991714947,-56.808779081775825 L63.71869178214484,-56.657645825259024 L63.582283701491505,-56.511842394325 L63.44016319590688,-56.371601291819246 L63.29255689532511,-56.237146150719234 L63.139700177505674,-56.1086913775221 L62.98183679269242,-55.98644181034511 L62.819218474921584,-55.87059239228424 L62.652104540598614,-55.76132786055159 L62.480761474983844,-55.65882245188751 L62.305462507246524,-55.563239624717085 L62.126487174764826,-55.47473179849407 L61.944120877366494,-55.39344011064789 L61.75865442222111,-55.31949419152138 L61.570383560109626,-55.25301195765805 L61.37960851381063,-55.194099423768606 L61.18663349935545,-55.14285053367642 L60.99176624091546,-55.09934701051172 L60.795317480095235,-55.06365822639326 L60.59760048041394,-55.035841091805274 L60.39893052776528,-55.01593996484624 L60.19962442765245,-55.00398658049396 L59.999999999999865,-55.0 " />
			<path d="M60.0,55.0 L60.0,-55.0 " />
			<path d="M60.0,55.0 L60.19962442765259,55.003986580493965 L60.398930527765415,55.01593996484625 L60.59760048041407,55.035841091805295 L60.79531748009536,55.06365822639328 L60.991766240915595,55.09934701051175 L61.18663349935558,55.14285053367645 L61.379608513810766,55.19409942376865 L61.570383560109754,55.253011957658096 L61.758654422221234,55.31949419152142 L61.944120877366615,55.393440110647944 L62.12648717476495,55.474731798494126 L62.305462507246645,55.56323962471715 L62.48076147498396,55.65882245188757 L62.65210454059873,55.76132786055166 L62.8192184749217,55.870592392284316 L62.981836792692526,55.9864418103452 L63.13970017750578,56.108691377522184 L63.29255689532521,56.237146150719326 L63.440163195906976,56.37160129181934 L63.5822837014916,56.5118423943251 L63.71869178214493,56.657645825259124 L63.84916991714955,56.808779081775924 L63.97351004187031,56.965001161918536 L64.09151387954087,57.126062948927995 L64.20299325744223,57.29170760849293 L64.30777040696906,57.461670998305834 L64.4056782471051,57.63568208927291 L64.49656065085611,57.81346339770576 L64.58027269421487,57.99473142780583 L64.65668088726171,58.17919712373593 L64.72566338703183,58.36656633055798 L64.78711019181004,58.55654026330194 L64.840923316543,58.74881598341796 L64.88701694908934,58.94308688185193 L64.92531758705853,59.139043167974144 L64.95576415502005,59.33637236358145 L64.97830810189632,59.53475980118498 L64.99291347838381,59.73388912578917 L64.9995569942789,59.933442799361494 L64.99822805561726,60.13310260718894 L64.98892878156724,60.33255016531337 L64.97167400105067,60.531467428236894 L64.94649122909613,60.72953719608737 L64.91342062296259,60.92644362043564 L64.87251491810339,61.12187270795751 L64.82383934407257,61.31551282113767 L64.76747152050768,61.50705517521692 L64.70350133335513,61.696194330590224 L64.63203079153503,61.8826286798706 L64.55317386427453,62.066060928841964 L64.46705629936885,62.24619857053401 L64.37381542265976,62.42275435166332 L64.2735999190514,62.59544673069662 L64.16656959541253,62.764000326806034 L64.05289512574332,62.92814635900019 L63.93275777901316,63.08762307473103 L63.80634913010328,63.2421761672929 L63.673870754315274,63.39155918134815 L63.535533905932674,63.5355339059328 L63.391559181348015,63.6738707543154 L63.242176167292754,63.80634913010339 L63.087623074730885,63.93275777901327 L62.92814635900004,64.05289512574343 L62.764000326805885,64.16656959541262 L62.595446730696466,64.2735999190515 L62.42275435166316,64.37381542265986 L62.24619857053385,64.46705629936893 L62.06606092884179,64.55317386427461 L61.88262867987043,64.6320307915351 L61.696194330590046,64.7035013333552 L61.50705517521674,64.76747152050774 L61.315512821137496,64.82383934407261 L61.12187270795733,64.87251491810343 L60.92644362043546,64.91342062296263 L60.72953719608719,64.94649122909615 L60.53146742823671,64.9716740010507 L60.332550165313194,64.98892878156725 L60.13310260718875,64.99822805561726 L59.93344279936131,64.9995569942789 L59.733889125788984,64.9929134783838 L59.534759801184805,64.9783081018963 L59.33637236358126,64.95576415502002 L59.139043167973966,64.92531758705849 L58.94308688185175,64.8870169490893 L58.748815983417785,64.84092331654296 L58.55654026330177,64.78711019180999 L58.36656633055781,64.72566338703177 L58.17919712373576,64.65668088726164 L57.99473142780566,64.5802726942148 L57.8134633977056,64.49656065085604 L57.63568208927275,64.40567824710502 L57.46167099830568,64.30777040696896 L57.29170760849277,64.20299325744213 L57.126062948927846,64.09151387954076 L56.965001161918394,63.9735100418702 L56.80877908177578,63.84916991714944 L56.65764582525899,63.7186917821448 L56.511842394324965,63.58228370149147 L56.37160129181921,63.44016319590685 L56.237146150719205,63.29255689532508 L56.10869137752207,63.13970017750564 L55.986441810345084,62.98183679269238 L55.87059239228421,62.81921847492155 L55.76132786055156,62.65210454059857 L55.65882245188748,62.4807614749838 L55.56323962471706,62.30546250724648 L55.47473179849405,62.12648717476478 L55.39344011064787,61.944120877366444 L55.31949419152136,61.75865442222106 L55.25301195765804,61.57038356010958 L55.1940994237686,61.37960851381059 L55.14285053367641,61.1866334993554 L55.09934701051171,60.99176624091542 L55.06365822639325,60.795317480095186 L55.03584109180527,60.59760048041389 L55.01593996484623,60.39893052776524 L55.00398658049396,60.1996244276524 L55.0,59.999999999999815 " />
			<path d="M-55.0,60.0 L55.0,60.0 " />
			<path d="M-55.0,60.0 L-55.003986580493965,60.19962442765259 L-55.01593996484625,60.398930527765415 L-55.035841091805295,60.597600480414066 L-55.06365822639328,60.79531748009536 L-55.09934701051175,60.99176624091559 L-55.14285053367645,61.18663349935557 L-55.19409942376864,61.37960851381075 L-55.253011957658096,61.57038356010975 L-55.31949419152142,61.75865442222123 L-55.39344011064794,61.9441208773666 L-55.47473179849412,62.12648717476493 L-55.56323962471714,62.30546250724663 L-55.658822451887566,62.48076147498394 L-55.761327860551646,62.652104540598714 L-55.8705923922843,62.819218474921676 L-55.986441810345184,62.981836792692505 L-56.10869137752217,63.13970017750576 L-56.237146150719305,63.29255689532519 L-56.37160129181932,63.440163195906955 L-56.51184239432508,63.582283701491576 L-56.657645825259095,63.71869178214491 L-56.808779081775896,63.84916991714953 L-56.96500116191851,63.973510041870284 L-57.12606294892797,64.09151387954084 L-57.29170760849289,64.20299325744222 L-57.4616709983058,64.30777040696903 L-57.635682089272876,64.40567824710509 L-57.813463397705725,64.4965606508561 L-57.99473142780579,64.58027269421486 L-58.17919712373589,64.65668088726169 L-58.36656633055794,64.72566338703182 L-58.5565402633019,64.78711019181003 L-58.74881598341791,64.84092331654298 L-58.94308688185188,64.88701694908933 L-59.139043167974094,64.92531758705852 L-59.3363723635814,64.95576415502003 L-59.53475980118493,64.97830810189632 L-59.73388912578911,64.99291347838381 L-59.93344279936144,64.9995569942789 L-60.13310260718888,64.99822805561726 L-60.332550165313314,64.98892878156725 L-60.53146742823683,64.97167400105069 L-60.729537196087314,64.94649122909614 L-60.92644362043558,64.9134206229626 L-61.12187270795745,64.8725149181034 L-61.31551282113762,64.82383934407258 L-61.507055175216856,64.76747152050771 L-61.69619433059016,64.70350133335516 L-61.88262867987054,64.63203079153506 L-62.0660609288419,64.55317386427456 L-62.24619857053395,64.46705629936889 L-62.42275435166326,64.3738154226598 L-62.59544673069656,64.27359991905145 L-62.76400032680597,64.16656959541257 L-62.928146359000124,64.05289512574336 L-63.08762307473096,63.93275777901321 L-63.24217616729283,63.80634913010333 L-63.391559181348086,63.67387075431533 L-63.53553390593274,63.53553390593274 L-63.67387075431534,63.39155918134808 L-63.806349130103335,63.242176167292826 L-63.932757779013215,63.087623074730956 L-64.05289512574338,62.92814635900012 L-64.16656959541257,62.76400032680597 L-64.27359991905145,62.59544673069655 L-64.3738154226598,62.42275435166325 L-64.46705629936889,62.24619857053395 L-64.55317386427457,62.06606092884189 L-64.63203079153506,61.882628679870535 L-64.70350133335516,61.69619433059015 L-64.76747152050771,61.507055175216856 L-64.82383934407258,61.31551282113761 L-64.8725149181034,61.12187270795744 L-64.9134206229626,60.92644362043558 L-64.94649122909614,60.729537196087314 L-64.97167400105069,60.53146742823684 L-64.98892878156725,60.33255016531332 L-64.99822805561726,60.13310260718888 L-64.9995569942789,59.93344279936144 L-64.99291347838381,59.73388912578912 L-64.97830810189632,59.53475980118494 L-64.95576415502003,59.336372363581404 L-64.92531758705852,59.13904316797411 L-64.88701694908934,58.94308688185189 L-64.84092331654298,58.74881598341793 L-64.78711019181003,58.556540263301905 L-64.72566338703183,58.36656633055795 L-64.6566808872617,58.179197123735904 L-64.58027269421486,57.9947314278058 L-64.49656065085611,57.81346339770574 L-64.40567824710509,57.63568208927289 L-64.30777040696904,57.46167099830581 L-64.20299325744223,57.29170760849291 L-64.09151387954086,57.12606294892798 L-63.9735100418703,56.96500116191853 L-63.849169917149545,56.80877908177592 L-63.71869178214492,56.65764582525912 L-63.58228370149159,56.51184239432509 L-63.440163195906976,56.37160129181933 L-63.29255689532521,56.237146150719326 L-63.13970017750578,56.108691377522184 L-62.981836792692526,55.9864418103452 L-62.8192184749217,55.870592392284316 L-62.65210454059873,55.76132786055165 L-62.48076147498396,55.65882245188757 L-62.305462507246645,55.56323962471715 L-62.12648717476495,55.474731798494126 L-61.944120877366615,55.39344011064794 L-61.758654422221234,55.31949419152142 L-61.570383560109754,55.253011957658096 L-61.37960851381076,55.19409942376865 L-61.18663349935558,55.14285053367645 L-60.991766240915595,55.09934701051175 L-60.79531748009536,55.06365822639328 L-60.59760048041407,55.035841091805295 L-60.398930527765415,55.01593996484625 L-60.19962442765259,55.003986580493965 L-60.0,55.0 " />
			<path d="M-60.0,-55.0 L-60.19962442765259,-55.003986580493965 L-60.398930527765415,-55.01593996484625 L-60.59760048041407,-55.035841091805295 L-60.79531748009536,-55.06365822639328 L-60.99176624091559,-55.09934701051175 L-61.18663349935558,-55.14285053367645 L-61.37960851381076,-55.19409942376864 L-61.57038356010975,-55.253011957658096 L-61.75865442222123,-55.31949419152142 L-61.94412087736661,-55.39344011064794 L-62.12648717476494,-55.47473179849412 L-62.30546250724663,-55.56323962471714 L-62.48076147498394,-55.658822451887566 L-62.652104540598714,-55.761327860551646 L-62.81921847492168,-55.8705923922843 L-62.981836792692505,-55.986441810345184 L-63.13970017750576,-56.10869137752217 L-63.29255689532519,-56.237146150719305 L-63.440163195906955,-56.37160129181932 L-63.582283701491576,-56.51184239432507 L-63.71869178214491,-56.657645825259095 L-63.84916991714953,-56.808779081775896 L-63.973510041870284,-56.96500116191851 L-64.09151387954084,-57.12606294892796 L-64.20299325744222,-57.29170760849289 L-64.30777040696903,-57.46167099830579 L-64.40567824710507,-57.63568208927287 L-64.4965606508561,-57.81346339770572 L-64.58027269421486,-57.99473142780578 L-64.65668088726169,-58.17919712373588 L-64.72566338703182,-58.36656633055792 L-64.78711019181003,-58.55654026330188 L-64.84092331654298,-58.748815983417906 L-64.88701694908933,-58.94308688185187 L-64.92531758705852,-59.13904316797408 L-64.95576415502003,-59.336372363581376 L-64.97830810189632,-59.53475980118491 L-64.99291347838381,-59.73388912578909 L-64.9995569942789,-59.933442799361416 L-64.99822805561726,-60.13310260718886 L-64.98892878156725,-60.33255016531329 L-64.97167400105069,-60.53146742823681 L-64.94649122909614,-60.72953719608729 L-64.9134206229626,-60.926443620435556 L-64.8725149181034,-61.12187270795742 L-64.82383934407258,-61.31551282113759 L-64.76747152050771,-61.50705517521683 L-64.70350133335518,-61.69619433059013 L-64.63203079153507,-61.882628679870514 L-64.55317386427457,-62.06606092884187 L-64.46705629936889,-62.24619857053392 L-64.37381542265982,-62.42275435166323 L-64.27359991905146,-62.59544673069654 L-64.16656959541258,-62.76400032680595 L-64.05289512574339,-62.928146359000095 L-63.93275777901323,-63.08762307473094 L-63.80634913010335,-63.242176167292804 L-63.67387075431535,-63.39155918134806 L-63.53553390593276,-63.535533905932716 L-63.3915591813481,-63.67387075431532 L-63.24217616729285,-63.806349130103314 L-63.08762307473098,-63.932757779013194 L-62.92814635900014,-64.05289512574336 L-62.764000326805984,-64.16656959541257 L-62.59544673069657,-64.27359991905143 L-62.42275435166327,-64.3738154226598 L-62.24619857053396,-64.46705629936888 L-62.06606092884191,-64.55317386427456 L-61.88262867987055,-64.63203079153506 L-61.69619433059017,-64.70350133335516 L-61.50705517521686,-64.76747152050771 L-61.31551282113762,-64.82383934407258 L-61.12187270795745,-64.8725149181034 L-60.92644362043558,-64.9134206229626 L-60.729537196087314,-64.94649122909614 L-60.53146742823683,-64.97167400105069 L-60.332550165313314,-64.98892878156725 L-60.133102607188874,-64.99822805561726 L-59.93344279936143,-64.9995569942789 L-59.733889125789105,-64.99291347838381 L-59.534759801184926,-64.97830810189632 L-59.33637236358138,-64.95576415502003 L-59.13904316797409,-64.92531758705852 L-58.94308688185187,-64.88701694908933 L-58.748815983417906,-64.84092331654298 L-58.55654026330188,-64.78711019181003 L-58.36656633055792,-64.72566338703182 L-58.179197123735875,-64.65668088726169 L-57.994731427805775,-64.58027269421484 L-57.81346339770571,-64.49656065085608 L-57.635682089272855,-64.40567824710507 L-57.461670998305785,-64.30777040696901 L-57.29170760849288,-64.2029932574422 L-57.126062948927945,-64.09151387954083 L-56.965001161918494,-63.97351004187027 L-56.80877908177588,-63.84916991714952 L-56.65764582525908,-63.71869178214489 L-56.51184239432506,-63.582283701491555 L-56.371601291819296,-63.44016319590693 L-56.23714615071928,-63.29255689532517 L-56.10869137752215,-63.13970017750573 L-55.98644181034516,-62.98183679269248 L-55.87059239228428,-62.81921847492165 L-55.761327860551624,-62.65210454059868 L-55.658822451887545,-62.48076147498391 L-55.56323962471712,-62.305462507246595 L-55.474731798494105,-62.1264871747649 L-55.393440110647916,-61.944120877366565 L-55.3194941915214,-61.758654422221184 L-55.253011957658074,-61.5703835601097 L-55.19409942376863,-61.3796085138107 L-55.14285053367644,-61.18663349935552 L-55.099347010511735,-60.99176624091554 L-55.06365822639327,-60.79531748009531 L-55.03584109180529,-60.597600480414016 L-55.01593996484625,-60.39893052776536 L-55.003986580493965,-60.19962442765253 L-55.0,-59.999999999999936 " />
			<path d="M-60.0,-55.0 L-60.0,55.0 " />
			<path d="M0.0,-7.759678143196491e-17 L1.0,-7.759678143196491e-17 " />
			<path d="M0.0,-7.759678143196491e-17 L0.0,0.9999999999999999 " />
			<path d="M1.0,-7.759678143196491e-17 L0.98203125,0.002864583333333256 L0.96875,0.01041666666666659 L0.95859375,0.02109374999999992 L0.95,0.03333333333333321 " />
			<path d="M1.0,-7.759678143196491e-17 L0.98203125,-0.002864583333333411 L0.96875,-0.010416666666666746 L0.95859375,-0.021093750000000074 L0.95,-0.03333333333333336 " />
			<path d="M0.0,0.9999999999999999 L-0.002864583333333335,0.9820312499999999 L-0.01041666666666667,0.9687499999999999 L-0.02109375,0.9585937499999999 L-0.03333333333333329,0.9499999999999998 " />
			<path d="M0.0,0.9999999999999999 L0.002864583333333332,0.9820312499999999 L0.010416666666666663,0.9687499999999999 L0.02109374999999999,0.9585937499999999 L0.03333333333333328,0.9499999999999998 " />
			<path d="M0.0,-7.759670383518348e-17 L-1.994931997373328e-18,0.002864583333333256 L-3.469446951953614e-18,0.01041666666666659 L-5.551115123125779e-18,0.03333333333333321 " />
			<path d="M0.0,-7.759670383518348e-17 L-1.994931997373328e-18,-0.002864583333333411 L-3.469446951953614e-18,-0.010416666666666746 L-5.551115123125779e-18,-0.03333333333333336 " />
			<path d="M1.0284424828125,-0.08947753906250008 L1.0000001,-0.08947753906250008 " />
			<path d="M1.0000001,-0.08947753906250008 L1.0692139671875,0.0037841796874999167 " />
			<path d="M1.0692139671875,0.0037841796874999224 L1.0081788109375,0.08947753906249992 " />
			<path d="M1.0081788109375,0.08947753906249992 L1.036377053125,0.08947753906249992 " />
			<path d="M1.036377053125,0.08947753906249992 L1.06884775625,0.04357910156249992 " />
			<path d="M1.06884775625,0.043579101562499924 L1.083252053125,0.021606445312499972 " />
			<path d="M1.083252053125,0.021606445312499938 L1.097412209375,0.041992187499999875 " />
			<path d="M1.097412209375,0.041992187499999924 L1.1334229515625,0.08947753906249992 " />
			<path d="M1.1334229515625,0.08947753906249992 L1.1591797875,0.08947753906249992 " />
			<path d="M1.1591797875,0.08947753906249992 L1.0963135765625,0.005126953124999903 " />
			<path d="M1.0963135765625,0.005126953124999923 L1.1640626,-0.08947753906250008 " />
			<path d="M1.1640626,-0.08947753906250008 L1.134765725,-0.08947753906250008 " />
			<path d="M1.134765725,-0.08947753906250008 L1.0897217796875,-0.025634765625000083 " />
			<path d="M1.0897217796875,-0.025634765625000076 L1.0819092796875,-0.013671875000000106 " />
			<path d="M1.0819092796875,-0.013671875000000078 L1.0733643578125,-0.027099609375000056 " />
			<path d="M1.0733643578125,-0.02709960937500007 L1.0284424828125,-0.08947753906250008 " />
			<path d="M0.08947753906250001,1.0926514671875 L0.08947753906250001,1.0689698265625 " />
			<path d="M0.08947753906250001,1.0689698265625 L0.013671875000000014,1.0689698265625 " />
			<path d="M0.013671875000000007,1.0689698265625 L-0.0894775390625,1.0000001 " />
			<path d="M-0.0894775390625,1.0000001 L-0.0894775390625,1.02880869375 " />
			<path d="M-0.0894775390625,1.02880869375 L-0.03552246093749999,1.0640870140625 " />
			<path d="M-0.03552246093749999,1.0640870140625 L-0.0052490234375000555,1.082275490625 " />
			<path d="M-0.0052490234374999905,1.082275490625 L-0.03686523437499991,1.101806740625 " />
			<path d="M-0.036865234374999986,1.101806740625 L-0.08947753906249997,1.136474709375 " />
			<path d="M-0.08947753906249999,1.136474709375 L-0.08947753906249999,1.1640626 " />
			<path d="M-0.08947753906249999,1.1640626 L0.013671875000000014,1.0926514671875 " />
			<path d="M0.01367187500000001,1.0926514671875 L0.08947753906250001,1.0926514671875 " />
			<path d="M7.853689486941873e-18,0.07073974609374992 L0.0,-8.326672684688674e-17 " />
			<path d="M0.0,-8.326672684688674e-17 L-7.853689486941873e-18,-0.07073974609375008 " />
			<path d="M-7.853689486941873e-18,-0.07073974609375008 L2.3242584072658017e-18,0.020935058593749944 " />
			<path d="M2.3242584072658e-18,0.020935058593749938 L4.3842425349882555e-18,0.03948974609374992 " />
			<path d="M4.38424253498826e-18,0.03948974609374996 L-6.701724678676024e-18,-0.060363769531250056 " />
			<path d="M-6.701724678676024e-18,-0.060363769531250056 L7.528428835196221e-18,0.06781005859374994 " />
			<path d="M7.528428835196221e-18,0.06781005859374993 L-3.625301014248407e-18,-0.03265380859375011 " />
			<path d="M-3.6253010142484055e-18,-0.03265380859375007 L-4.831475931138529e-18,-0.04351806640625007 " />
			<path d="M-4.831475931138529e-18,-0.043518066406250076 L7.853689486941873e-18,0.07073974609374992 " />

        </g>
        </g>
    </svg>
    