<?xml version="1.0" encoding="UTF-8" standalone="no"?>
    <svg
    xmlns:svg="http://www.w3.org/2000/svg"
    xmlns="http://www.w3.org/2000/svg"
    width="240.0"
    height="240.0"
    >
        <g transform="scale(0.40909090914284796, -0.40909090914284796)   translate(91.88888888268187,-252.95391127829814)" stroke-width="2.444444444134094"  fill="none">
        <!-- hidden lines -->
        <g  stroke="rgb(160,160,160)" fill="none" stroke-dasharray="2.444444444134094,2.444444444134094" >
    
        </g>

        <!-- solid lines -->
        <g  stroke="rgb(0,0,0)" fill="none">
    			<path d="M43.0,-235.93497754852058 L43.0,204.06502239561627 " />
			<path d="M-43.0,-235.93497754852058 L43.0,-235.93497754852058 " />
			<path d="M-43.0,204.06502239561624 L-43.0,-235.9349775485206 " />
			<path d="M43.0,204.06502239561624 L-43.0,204.06502239561624 " />
			<path d="M33.0,-225.9349775497902 L33.0,194.06502239688584 " />
			<path d="M-33.0,-225.9349775497902 L33.0,-225.9349775497902 " />
			<path d="M-33.0,194.06502239688584 L-33.0,-225.9349775497902 " />
			<path d="M-9.0,194.06502239688584 L-33.0,194.06502239688584 " />
			<path d="M9.0,194.06502239688584 L-9.0,194.06502239688584 " />
			<path d="M33.0,194.06502239688584 L9.0,194.06502239688584 " />
			<path d="M-9.0,114.06502240704279 L-9.0,194.06502239688587 " />
			<path d="M9.0,114.06502240704279 L-9.0,114.06502240704279 " />
			<path d="M9.0,194.06502239688587 L9.0,114.06502240704282 " />
			<path d="M9.0,199.06502239625107 L9.0,194.06502239688587 " />
			<path d="M-9.0,199.06502239625107 L9.0,199.06502239625107 " />
			<path d="M-9.0,194.06502239688587 L-9.0,199.06502239625104 " />
			<path d="M-4.199070620785736e-17,-225.9349775497902 L1.0,-225.9349775497902 " />
			<path d="M-4.199070620785736e-17,-225.9349775497902 L-4.1790750464010417e-17,-224.93497754991716 " />
			<path d="M-4.199070620785736e-17,-225.9349775497902 L-4.199070620785736e-17,-225.93496161481264 " />
			<path d="M1.0,-225.9349775497902 L0.98203125,-225.93211296645723 L0.96875,-225.92456088312485 L0.95859375,-225.9138837997929 L0.95,-225.9016442164611 " />
			<path d="M1.0,-225.9349775497902 L0.98203125,-225.93784213312318 L0.96875,-225.94539421645555 L0.95859375,-225.9560712997875 L0.95,-225.9683108831193 " />
			<path d="M-4.1790750464010417e-17,-224.93497754991716 L-0.0028645833333333765,-224.95294629991488 L-0.010416666666666711,-224.96622754991319 L-0.021093750000000043,-224.9763837999119 L-0.03333333333333333,-224.9849775499108 " />
			<path d="M-4.1790750464010417e-17,-224.93497754991716 L0.00286458333333329,-224.95294629991488 L0.010416666666666621,-224.96622754991319 L0.02109374999999995,-224.9763837999119 L0.033333333333333236,-224.9849775499108 " />
			<path d="M-4.199070620785736e-17,-225.93496161481264 L-4.398506541533946e-17,-225.9320973178113 L-4.5458070287479236e-17,-225.92454544611533 L-4.7535156139521566e-17,-225.90162907823242 " />
			<path d="M-4.199070620785736e-17,-225.93496161481264 L-4.398621099512191e-17,-225.93782648447723 L-4.5462236032142707e-17,-225.94537877944603 L-4.75484865224447e-17,-225.9682957448906 " />
			<path d="M1.0284424828125,-226.02445508884134 L1.0000001,-226.02445508884134 " />
			<path d="M1.0000001,-226.02445508884134 L1.0692139671875,-225.9311933701032 " />
			<path d="M1.0692139671875,-225.9311933701032 L1.0081788109375,-225.84550001073907 " />
			<path d="M1.0081788109375,-225.84550001073907 L1.036377053125,-225.84550001073907 " />
			<path d="M1.036377053125,-225.84550001073907 L1.06884775625,-225.89139844823325 " />
			<path d="M1.06884775625,-225.89139844823325 L1.083252053125,-225.91337110448046 " />
			<path d="M1.083252053125,-225.91337110448046 L1.097412209375,-225.89298536229555 " />
			<path d="M1.097412209375,-225.89298536229555 L1.1334229515625,-225.84550001073907 " />
			<path d="M1.1334229515625,-225.84550001073907 L1.1591797875,-225.84550001073907 " />
			<path d="M1.1591797875,-225.84550001073907 L1.0963135765625,-225.92985059666586 " />
			<path d="M1.0963135765625,-225.92985059666586 L1.1640626,-226.02445508884134 " />
			<path d="M1.1640626,-226.02445508884134 L1.134765725,-226.02445508884134 " />
			<path d="M1.134765725,-226.02445508884134 L1.0897217796875,-225.96061231541194 " />
			<path d="M1.0897217796875,-225.96061231541194 L1.0819092796875,-225.94864942478847 " />
			<path d="M1.0819092796875,-225.94864942478847 L1.0733643578125,-225.96207715916177 " />
			<path d="M1.0733643578125,-225.96207715916177 L1.0284424828125,-226.02445508884134 " />
			<path d="M0.08947753906249997,-224.84232608274144 L0.08947753906249997,-224.86600772336342 " />
			<path d="M0.08947753906249997,-224.86600772336342 L0.013671874999999972,-224.86600772336342 " />
			<path d="M0.013671874999999965,-224.86600772336342 L-0.08947753906250006,-224.93497744991717 " />
			<path d="M-0.08947753906250004,-224.93497744991717 L-0.08947753906250004,-224.90616885617084 " />
			<path d="M-0.08947753906250004,-224.90616885617084 L-0.03552246093750003,-224.87089053586283 " />
			<path d="M-0.035522460937500035,-224.8708905358628 L-0.005249023437500097,-224.8527020593026 " />
			<path d="M-0.005249023437500032,-224.8527020593026 L-0.03686523437499995,-224.8331708093051 " />
			<path d="M-0.03686523437500003,-224.8331708093051 L-0.08947753906250001,-224.7985028405595 " />
			<path d="M-0.08947753906250003,-224.79850284055948 L-0.08947753906250003,-224.77091494993797 " />
			<path d="M-0.08947753906250003,-224.770914949938 L0.013671874999999972,-224.84232608274144 " />
			<path d="M0.013671874999999969,-224.84232608274144 L0.08947753906249997,-224.84232608274144 " />
			<path d="M-3.4122871902365764e-17,-225.86422186872628 L-4.199070620785736e-17,-225.93496161481104 " />
			<path d="M-4.199070620785736e-17,-225.93496161481104 L-4.985854051334895e-17,-226.0057013608958 " />
			<path d="M-4.985854051334895e-17,-226.0057013608958 L-4.985854051334895e-17,-226.00570101076204 " />
			<path d="M-4.985854051334895e-17,-226.005701010762 L-3.9662261715377964e-17,-225.91402437955492 " />
			<path d="M-3.9662261715377964e-17,-225.91402437955492 L-3.7598567471314604e-17,-225.89546935359462 " />
			<path d="M-3.75985674713146e-17,-225.89546935359462 L-4.870450096897141e-17,-225.99532286920694 " />
			<path d="M-4.8704500968971407e-17,-225.99532286920694 L-4.8704500968971407e-17,-225.99532253268947 " />
			<path d="M-4.8704500968971407e-17,-225.99532253268947 L-3.444871836195472e-17,-225.86714870458076 " />
			<path d="M-3.444871836195472e-17,-225.86714870458073 L-3.444871836195472e-17,-225.8671490410982 " />
			<path d="M-3.444871836195472e-17,-225.8671490410982 L-4.562253653869256e-17,-225.96761488652882 " />
			<path d="M-4.562253653869256e-17,-225.96761488652885 L-4.683088382633493e-17,-225.9784793446943 " />
			<path d="M-4.683088382633493e-17,-225.97847934469428 L-3.4122871902365764e-17,-225.86422153220877 " />
			<path d="M-3.4122871902365764e-17,-225.8642215322088 L-3.4122871902365764e-17,-225.86422186872628 " />

        </g>
        </g>
    </svg>
    