<?xml version="1.0" encoding="UTF-8" standalone="no"?>
    <svg
    xmlns:svg="http://www.w3.org/2000/svg"
    xmlns="http://www.w3.org/2000/svg"
    width="240.0"
    height="240.0"
    >
        <g transform="scale(0.40909090913407986, -0.40909090913407986)   translate(118.88888888372972,-254.36108837144965)" stroke-width="2.4444444441864857"  fill="none">
        <!-- hidden lines -->
        <g  stroke="rgb(160,160,160)" fill="none" stroke-dasharray="2.4444444441864857,2.4444444441864857" >
    
        </g>

        <!-- solid lines -->
        <g  stroke="rgb(0,0,0)" fill="none">
    			<path d="M70.0,-234.52780046584752 L70.0,205.47219948771993 " />
			<path d="M-70.0,-234.52780046584752 L70.0,-234.52780046584752 " />
			<path d="M-70.0,205.47219948771993 L-70.0,-234.52780046584752 " />
			<path d="M70.0,205.47219948771993 L-70.0,205.47219948771993 " />
			<path d="M60.0,-224.52780046690282 L60.0,195.47219948877523 " />
			<path d="M-60.0,-224.52780046690282 L60.0,-224.52780046690282 " />
			<path d="M-60.0,195.47219948877523 L-60.0,-224.52780046690282 " />
			<path d="M-9.0,195.47219948877523 L-60.0,195.47219948877523 " />
			<path d="M9.0,195.47219948877523 L-9.0,195.47219948877523 " />
			<path d="M60.0,195.47219948877523 L9.0,195.47219948877523 " />
			<path d="M-9.0,115.4721994972175 L-9.0,195.47219948877523 " />
			<path d="M9.0,115.4721994972175 L-9.0,115.4721994972175 " />
			<path d="M9.000000000000002,195.4721994887752 L9.000000000000002,115.47219949721747 " />
			<path d="M9.000000000000002,200.47219948824755 L9.000000000000002,195.4721994887752 " />
			<path d="M-8.999999999999998,200.47219948824755 L9.000000000000002,200.47219948824755 " />
			<path d="M-9.0,195.47219948877523 L-9.0,200.47219948824758 " />
			<path d="M-1.3437025986514352e-15,-224.52780046690282 L0.9999999999999987,-224.52780046690282 " />
			<path d="M-1.3437025986514352e-15,-224.52780046690282 L-1.3373040148483331e-15,-223.52780046700835 " />
			<path d="M-1.3437025986514352e-15,-224.52780046690282 L-1.3437025986514352e-15,-224.52778593910233 " />
			<path d="M0.9999999999999987,-224.52780046690282 L0.9820312499999987,-224.52493588356978 L0.9687499999999987,-224.51738380023724 L0.9585937499999987,-224.50670671690503 L0.9499999999999986,-224.494467133573 " />
			<path d="M0.9999999999999987,-224.52780046690282 L0.9820312499999987,-224.53066505023585 L0.9687499999999987,-224.5382171335684 L0.9585937499999987,-224.5488942169006 L0.9499999999999986,-224.56113380023262 " />
			<path d="M-1.3373040148483331e-15,-223.52780046700835 L-0.0028645833333346728,-223.54576921700644 L-0.010416666666668007,-223.55905046700505 L-0.021093750000001337,-223.56920671700396 L-0.03333333333333463,-223.57780046700307 " />
			<path d="M-1.3373040148483331e-15,-223.52780046700835 L0.0028645833333319935,-223.54576921700644 L0.010416666666665325,-223.55905046700505 L0.021093749999998655,-223.56920671700396 L0.03333333333333194,-223.57780046700307 " />
			<path d="M-1.3437025986514352e-15,-224.52778593910233 L-1.3456792013722894e-15,-224.5249216168157 L-1.3471053936887733e-15,-224.51736972643053 L-1.349040427647791e-15,-224.49445333216255 " />
			<path d="M-1.3437025986514352e-15,-224.52778593910233 L-1.3457158599253279e-15,-224.53065078348178 L-1.3472386975180046e-15,-224.53820305976166 L-1.349466999901331e-15,-224.56111999882216 " />
			<path d="M1.0284424828124987,-224.61727800595588 L1.0000000999999987,-224.61727800595588 " />
			<path d="M1.0000000999999987,-224.61727800595588 L1.0692139671874987,-224.52401628721572 " />
			<path d="M1.0692139671874987,-224.52401628721572 L1.0081788109374987,-224.43832292784975 " />
			<path d="M1.0081788109374987,-224.43832292784975 L1.0363770531249987,-224.43832292784975 " />
			<path d="M1.0363770531249987,-224.43832292784975 L1.0688477562499987,-224.48422136534492 " />
			<path d="M1.0688477562499987,-224.48422136534492 L1.0832520531249987,-224.5061940215926 " />
			<path d="M1.0832520531249987,-224.5061940215926 L1.0974122093749987,-224.48580827940725 " />
			<path d="M1.0974122093749987,-224.48580827940725 L1.1334229515624987,-224.43832292784975 " />
			<path d="M1.1334229515624987,-224.43832292784975 L1.1591797874999987,-224.43832292784975 " />
			<path d="M1.1591797874999987,-224.43832292784975 L1.0963135765624987,-224.52267351377836 " />
			<path d="M1.0963135765624987,-224.52267351377836 L1.1640625999999987,-224.61727800595588 " />
			<path d="M1.1640625999999987,-224.61727800595588 L1.1347657249999987,-224.61727800595588 " />
			<path d="M1.1347657249999987,-224.61727800595588 L1.0897217796874987,-224.55343523252512 " />
			<path d="M1.0897217796874987,-224.55343523252512 L1.0819092796874987,-224.54147234190137 " />
			<path d="M1.0819092796874987,-224.54147234190137 L1.0733643578124987,-224.55490007627495 " />
			<path d="M1.0733643578124987,-224.55490007627495 L1.0284424828124987,-224.61727800595585 " />
			<path d="M0.08947753906249868,-223.43514899983063 L0.08947753906249868,-223.45883064045313 " />
			<path d="M0.08947753906249867,-223.45883064045313 L0.013671874999998668,-223.45883064045313 " />
			<path d="M0.01367187499999867,-223.45883064045313 L-0.08947753906250135,-223.52780036700835 " />
			<path d="M-0.08947753906250135,-223.52780036700835 L-0.08947753906250135,-223.4989917732614 " />
			<path d="M-0.08947753906250135,-223.4989917732614 L-0.03552246093750134,-223.46371345295262 " />
			<path d="M-0.03552246093750133,-223.46371345295262 L-0.005249023437501395,-223.44552497639202 " />
			<path d="M-0.005249023437501327,-223.44552497639202 L-0.03686523437500125,-223.4259937263941 " />
			<path d="M-0.036865234375001325,-223.4259937263941 L-0.08947753906250133,-223.39132575764776 " />
			<path d="M-0.08947753906250132,-223.39132575764773 L-0.08947753906250132,-223.36373786702563 " />
			<path d="M-0.08947753906250132,-223.36373786702566 L0.013671874999998695,-223.43514899983063 " />
			<path d="M0.013671874999998673,-223.43514899983063 L0.08947753906249867,-223.43514899983063 " />
			<path d="M-1.3353962749709023e-15,-224.45704619301458 L-1.3437025986514352e-15,-224.52778593910085 " />
			<path d="M-1.3437025986514352e-15,-224.52778593910085 L-1.3520089223319681e-15,-224.59852568518716 " />
			<path d="M-1.3520089223319681e-15,-224.59852568518716 L-1.3520089223319681e-15,-224.5985253659728 " />
			<path d="M-1.3520089223319681e-15,-224.5985253659728 L-1.3412443855173345e-15,-224.50684889606003 " />
			<path d="M-1.3412443855173345e-15,-224.50684889606003 L-1.339065677666703e-15,-224.4882938999881 " />
			<path d="M-1.339065677666703e-15,-224.4882938999881 L-1.350790565968128e-15,-224.58814741560255 " />
			<path d="M-1.350790565968128e-15,-224.58814741560255 L-1.350790565968128e-15,-224.58814710880208 " />
			<path d="M-1.350790565968128e-15,-224.58814710880208 L-1.3357402814736336e-15,-224.4599732806906 " />
			<path d="M-1.3357402814736336e-15,-224.4599732806906 L-1.3357402814736336e-15,-224.45997358749108 " />
			<path d="M-1.3357402814736336e-15,-224.45997358749108 L-1.3475368377964612e-15,-224.56043925822914 " />
			<path d="M-1.3475368377964612e-15,-224.56043925822914 L-1.3488125285774231e-15,-224.57130369870205 " />
			<path d="M-1.3488125285774231e-15,-224.57130369870205 L-1.3353962749709023e-15,-224.4570458862141 " />
			<path d="M-1.3353962749709023e-15,-224.4570458862141 L-1.3353962749709023e-15,-224.45704619301458 " />

        </g>
        </g>
    </svg>
    